<?xml version="1.0" encoding="utf-8"?>
<!-- Generator: Adobe Illustrator 26.3.1, SVG Export Plug-In . SVG Version: 6.00 Build 0)  -->
<svg version="1.1" id="Capa_1" xmlns="http://www.w3.org/2000/svg" xmlns:xlink="http://www.w3.org/1999/xlink" x="0px" y="0px"
	 viewBox="0 0 30 30" style="enable-background:new 0 0 30 30;" xml:space="preserve">
<style type="text/css">
	.st0{<fill: id="none"></fill:>;}
</style>
<path class="st0" d="M5.1,24C5,24,5,24,5,24C2.2,24,0.1,21.7,0.1,19c-0.1-2.9,2.1-5.3,5-5.5l0.6,0C6.8,9.1,11,6,15.9,6L16,6.4L16,6
	c5.3-0.1,9.8,4.1,10.1,9.4c2.3,0.2,3.7,2.5,3.7,4.6v0.2c0,1.1-0.5,2.1-1.2,2.8c-0.8,0.7-1.8,1.1-2.9,1.1L5.2,24
	C5.2,24,5.1,24,5.1,24z M5.2,14.2c-2.5,0.2-4.4,2.3-4.3,4.8c-0.1,2.3,1.8,4.3,4.1,4.3c0.1,0,0.1,0,0.2,0l20.6,0
	c0.9,0,1.7-0.3,2.3-0.9c0.6-0.6,1-1.4,1-2.3v-0.2c0-1.9-1.3-3.8-3.4-3.8h-0.4l0-0.4c-0.1-5-4.3-9.1-9.3-9l-0.1,0
	c-4.7,0-8.7,3-9.4,7.2l-0.1,0.3H5.2z"/>
</svg>
