<svg id="Capa_1" data-name="Capa 1" xmlns="http://www.w3.org/2000/svg" viewBox="0 0 30 30"><defs><style>.cls-1{<fill: id="none"></fill:>;}</style></defs><path class="cls-1" d="M3.25,15.49a.35.35,0,0,1-.2-.05A6.64,6.64,0,0,1,1.11,13.5,6.35,6.35,0,0,1,11.82,6.66a.38.38,0,1,1-.63.41,5.6,5.6,0,0,0-10.33,3A5.57,5.57,0,0,0,3.45,14.8a.39.39,0,0,1,.12.52A.4.4,0,0,1,3.25,15.49Z"/><path class="cls-1" d="M26.29,21.55a.38.38,0,0,1-.37-.38.37.37,0,0,1,.37-.37A2.67,2.67,0,0,0,29.14,18c0-1.78-1.17-3.76-2.85-3.76h-.37v-.37c0-4.36-4-7.91-8.82-7.91a8.37,8.37,0,0,0-8.37,6.6l-.06.3H7.44A4,4,0,0,0,3.68,17,3.6,3.6,0,0,0,7.44,20.8a.37.37,0,0,1,.38.37.38.38,0,0,1-.38.38A4.37,4.37,0,0,1,2.93,17a4.76,4.76,0,0,1,4.51-5h.62a9.13,9.13,0,0,1,9-6.9c5.14,0,9.36,3.7,9.56,8.3,1.92.26,3.23,2.48,3.23,4.49A3.41,3.41,0,0,1,26.29,21.55Z"/><path class="cls-1" d="M20.2,21.55H8.62a.34.34,0,0,1-.34-.34.34.34,0,0,1,.34-.34H20.2a.34.34,0,0,1,.34.34A.35.35,0,0,1,20.2,21.55Z"/><path class="cls-1" d="M25.14,21.55H22.09a.34.34,0,0,1-.34-.34.34.34,0,0,1,.34-.34h3.05a.34.34,0,0,1,.34.34A.34.34,0,0,1,25.14,21.55Z"/><path class="cls-1" d="M29.26,23.77H12.54a.34.34,0,0,1,0-.68H29.26a.34.34,0,0,1,0,.68Z"/><path class="cls-1" d="M21.12,26.27h-3a.34.34,0,0,1,0-.68h3a.34.34,0,0,1,0,.68Z"/><path class="cls-1" d="M15.93,26.27h-3a.34.34,0,1,1,0-.68h3a.34.34,0,0,1,0,.68Z"/></svg>